<svg viewBox="0 0 1206 300" xmlns="http://www.w3.org/2000/svg" xml:space="preserve" style="fill-rule:evenodd;clip-rule:evenodd;stroke-linejoin:round;stroke-miterlimit:2"><path style="fill:#007350" d="M58.9 28.3H302v27.5H58.9z"/><path d="M302 93.2H58.9V65.6H302v27.6ZM174.4 121.1v145.8h-27.5V93.2l27.5 27.9ZM212.6 159.3v107.6H185V131.8l27.6 27.5ZM863.8 28.6v237.8h28V55.3h20l134.2 172h4.9V28.6h-27.6V154L925.1 28.6h-61.3Z" style="fill:#007350;fill-rule:nonzero"/><path d="M901.5 65.5v200.9h28V137.5l100.9 128.9h59.1V28.6h-28V238h-20.8L906.9 65.5h-5.4ZM596.2 266.2c.2-53 .1-112.1.1-165.1v-5.3c1.6 1.3 2.6 2 3.5 2.8 6.5 6.5 12.8 13.1 19.5 19.4 2.9 2.7 4.1 5.5 4 9.5-.2 35.2 0 70.3-.2 105.5 0 5 1.2 6.5 6.3 6.5 29.2-.2 58.3-.1 87.5-.1 45.6-.1 84.1-32.8 91.5-77.7 8-48.6-25-95.4-73.8-104.5-6.2-1.2-12.5-1.8-18.8-1.8-37.7-.2-75.3-.1-113-.1h-6.2V29.2c2.1-.1 3.9-.2 5.7-.2 38.3 0 76.6-.2 115 0 30.3.2 58.2 7.7 81.5 28.4 18.5 16.4 29.2 37.2 33.8 61.3 5.1 26.8 4.7 53.4-5.9 78.9-15.3 37.2-43.7 58.9-82.9 66.7-8.1 1.6-16.5 2.2-24.8 2.2l-122.8-.3ZM330.2 28.7h26.6V35c0 39.5-.4 79 .1 118.5.5 35.3 15.8 62.9 46.5 80.8 54.4 31.7 124.6-.8 135.7-62.7 1.2-6.5 1.8-13.2 1.9-19.8.2-38.8.1-77.7.1-116.5v-6.5h26.4c.1 1.7.2 3.4.2 5.2 0 41.8.7 83.7-.2 125.5-1.1 54.9-34.5 99.5-92.2 109.3-30.4 5.2-60.1 3.2-87.6-11.9-31.6-17.3-49.4-44.7-55.5-79.8-1.5-8.8-1.9-17.9-2-26.8-.2-38.3-.1-76.7-.1-115 .1-2 .1-3.9.1-6.6Z" style="fill:#007350;fill-rule:nonzero"/><path d="M368.4 28.6h26.4v127.6c0 27.7 16.5 48.8 43.6 54.1 32.5 6.4 60.5-14.4 64-43.8.4-3.5.8-6.9.8-10.4.1-40.3 0-80.6 0-121v-6.4h26.3c.2 1.4.5 2.6.5 3.9 0 41.8.2 83.6-.2 125.4-.4 35.8-27.8 68.4-62.7 75.6-45.3 9.4-86.9-17.2-97.3-62.3-.9-3.7-1.5-7.5-1.5-11.3-.1-42.7-.1-85.3-.1-127.9 0-1 .1-1.9.2-3.5ZM660.5 202.1c.1-9.5-.4-32.4.2-41.8l-25.8-26.8v94.4c1.6.1 2.7.2 3.8.2 27.8 0 55.7 0 83.5-.1 3.8 0 7.7-.5 11.4-1.3 45.7-9.7 73.4-53.7 62.7-99.2-8.1-34.4-39.6-60.5-74.9-61-40.3-.6-80.7-.2-121-.2-1.1 0-2.2.2-4.1.4 0 7 .4 19.9-.1 26.6l121.5.2c6.6 0 13.4.5 19.7 2.2 28.1 7.5 44.4 37.2 36.7 65.9-6.2 23-24.1 38.6-47.9 39.8l-65.7.7ZM1117.4 28.6h2.6c.1 0 .3.1.4.1.8.1 1.6.2 2.3.4 4.3.9 7.8 3.1 10.6 6.4 2.2 2.6 3.6 5.5 4.1 8.8.2 1 .2 2 .4 2.9v1c0 .5-.1.9-.1 1.4-.4 3.8-1.7 7.2-4.1 10.1-3 3.7-6.8 6-11.4 6.8-1 .2-2 .2-3 .4h-1c-.2 0-.3-.1-.4-.1-1-.1-1.9-.2-2.9-.4-3.3-.7-6.3-2.2-8.8-4.4-3.2-2.9-5.2-6.4-6.1-10.6-.2-.8-.2-1.6-.4-2.4v-2.6c0-.1.1-.2.1-.4.2-2.6.9-5 2.2-7.3 2.9-5.3 7.3-8.6 13.2-9.8.8-.1 1.6-.2 2.3-.3Zm-14.8 19.1c0 8.9 7.2 16.2 16.1 16.2 8.9 0 16.2-7.2 16.2-16.1 0-8.9-7.2-16.1-16.1-16.2-9-.1-16.2 7.1-16.2 16.1Z" style="fill:#007350;fill-rule:nonzero"/><path d="M1114.7 50.5v7.6h-3V37.3h.2c3 0 5.9 0 8.9.1 1.9.1 3.6.9 4.8 2.7.7 1.1.9 2.4.9 3.7 0 2.1-.4 4-2.1 5.2-.7.5-1.5.8-2.3 1.1-.1.1-.3.1-.5.2 1.5 2.6 2.9 5.2 4.4 7.9h-2.9c-.1 0-.3-.2-.4-.4-1.3-2.2-2.5-4.5-3.8-6.8-.2-.3-.4-.5-.7-.5h-3.5Zm0-2.9c1.8 0 3.5.1 5.2 0 .7 0 1.5-.4 2.2-.8 1.2-.8 1.6-2 1.3-3.9-.2-1.5-1.3-2.3-2.4-2.4-2-.3-4.1-.3-6.2-.4-.1 2.5-.1 5-.1 7.5Z" style="fill:#007350;fill-rule:nonzero"/></svg>